HIERARCHY
ROOT Joint1
{
	OFFSET 0.000000 0.000000 0.000000
	CHANNELS 6 Xposition Yposition Zposition Xrotation Yrotation Zrotation
	JOINT Joint2
	{
		OFFSET -0.000000 0.000000 1.456275
		CHANNELS 6 Xposition Yposition Zposition Xrotation Yrotation Zrotation
		JOINT Joint3
		{
			OFFSET -0.000000 0.000002 1.471446
			CHANNELS 6 Xposition Yposition Zposition Xrotation Yrotation Zrotation
			JOINT Joint4
			{
				OFFSET 0.625745 0.000000 0.917755
				CHANNELS 6 Xposition Yposition Zposition Xrotation Yrotation Zrotation
				JOINT Joint5
				{
					OFFSET -0.629534 0.000001 0.940221
					CHANNELS 6 Xposition Yposition Zposition Xrotation Yrotation Zrotation
					JOINT Joint6
					{
						OFFSET -0.000001 0.113772 1.960660
						CHANNELS 6 Xposition Yposition Zposition Xrotation Yrotation Zrotation
						JOINT Joint7
						{
							OFFSET -0.669733 -0.113771 0.388340
							CHANNELS 6 Xposition Yposition Zposition Xrotation Yrotation Zrotation
							End Site
							{
								OFFSET 0.005509 0.005509 0.438980
							}
						}
					}
				}
			}
		}
	}
}
MOTION
Frames: 17
Frame Time: 0.041667
0.000000 0.000000 0.000000 -0.000000 1.019410 0.019081 -0.000000 0.000000 1.456275 0.000000 -44.964027 0.000000 -0.000000 0.000002 1.471446 0.000000 -1.133463 -0.058434 0.625744 0.000000 0.917755 0.000004 135.030299 -0.000001 -0.629534 0.000001 0.940221 0.000000 1.709737 0.026959 -0.000000 0.113772 1.960660 -88.446251 89.998739 -0.100863 -0.669733 -0.113771 0.388340 -0.705275 3.566198 134.970002 
0.000000 0.000000 0.000000 -0.000000 1.019410 0.109490 -0.000000 -0.000000 1.456275 -0.000000 -44.901909 -0.000000 -0.000000 0.000002 1.471446 0.000000 -1.133458 -0.136959 0.625744 0.000000 0.917755 0.000004 135.054724 -0.000001 -0.629534 0.000001 0.940221 -0.000000 1.709737 0.145441 -0.000000 0.113772 1.960660 -88.301505 90.079151 0.001564 -0.669733 -0.113771 0.388339 -0.705667 3.566198 134.992077 
0.000000 0.000000 0.000000 -0.000000 1.019410 0.265188 -0.000000 -0.000000 1.456275 -0.000000 -44.794918 0.000000 -0.000001 0.000002 1.471445 -0.000000 -1.133465 -0.272189 0.625744 0.000000 0.917755 0.000004 135.096811 -0.000001 -0.629534 0.000001 0.940221 0.000000 1.709737 0.349485 -0.000000 0.113772 1.960660 -88.302946 90.217619 0.000576 -0.669733 -0.113771 0.388339 -0.706343 3.566198 135.030108 
0.000000 0.000000 0.000000 -0.000000 1.019410 0.490281 -0.000000 0.000000 1.456275 0.000000 -44.640252 0.000000 -0.000000 0.000002 1.471446 -0.000000 -1.133463 -0.467692 0.625744 0.000000 0.917755 0.000003 135.157655 -0.000001 -0.629534 0.000001 0.940221 0.000000 1.709737 0.644472 -0.000001 0.113772 1.960660 -88.303472 90.417805 0.000325 -0.669733 -0.113771 0.388340 -0.707320 3.566197 135.085091 
0.000000 0.000000 0.000000 -0.000000 1.019410 0.788872 -0.000000 -0.000000 1.456275 0.000000 -44.435083 -0.000000 -0.000001 0.000002 1.471446 0.000000 -1.133464 -0.727033 0.625744 0.000000 0.917755 0.000004 135.238347 -0.000001 -0.629534 0.000001 0.940221 0.000000 1.709736 1.035780 -0.000001 0.113772 1.960660 -88.303602 90.683363 0.000161 -0.669733 -0.113771 0.388340 -0.708615 3.566194 135.158024 
0.000000 0.000000 0.000000 -0.000000 1.019410 1.165068 -0.000000 0.000000 1.456275 -0.000000 -44.176588 -0.000000 -0.000000 0.000002 1.471446 0.000000 -1.133460 -1.053775 0.625744 0.000000 0.917754 0.000004 135.340048 -0.000001 -0.629533 0.000001 0.940221 -0.000000 1.709737 1.528789 -0.000001 0.113772 1.960661 -88.303691 91.017940 0.000108 -0.669733 -0.113771 0.388340 -0.710247 3.566188 135.249917 
0.000000 0.000000 0.000000 -0.000000 1.019410 1.622971 -0.000000 0.000000 1.456275 -0.000000 -43.861945 -0.000000 -0.000000 0.000002 1.471446 -0.000000 -1.133456 -1.451486 0.625745 0.000000 0.917755 0.000004 135.463811 -0.000001 -0.629533 0.000001 0.940221 0.000000 1.709736 2.128879 -0.000001 0.113772 1.960660 -88.303746 91.425176 0.000085 -0.669733 -0.113771 0.388340 -0.712234 3.566177 135.361754 
0.000000 0.000000 0.000000 -0.000000 1.019410 2.166689 -0.000000 0.000000 1.456275 0.000000 -43.488340 0.000000 -0.000000 0.000002 1.471446 0.000000 -1.133464 -1.923728 0.625745 0.000000 0.917755 0.000004 135.610770 -0.000001 -0.629534 0.000001 0.940221 -0.000000 1.709736 2.841428 -0.000001 0.113772 1.960661 -88.303780 91.908740 0.000056 -0.669733 -0.113771 0.388339 -0.714593 3.566160 135.494561 
0.000000 0.000000 0.000000 -0.000000 1.019410 2.800324 -0.000000 -0.000000 1.456275 -0.000000 -43.052947 -0.000000 -0.000000 0.000002 1.471446 0.000000 -1.133456 -2.474068 0.625744 0.000000 0.917755 0.000004 135.782057 -0.000001 -0.629534 0.000001 0.940221 -0.000000 1.709737 3.671815 -0.000001 0.113772 1.960661 -88.303800 92.472271 0.000052 -0.669733 -0.113771 0.388341 -0.717342 3.566132 135.649346 
0.000000 0.000000 0.000000 -0.000000 1.019410 3.527983 -0.000000 0.000000 1.456275 -0.000000 -42.552956 0.000000 -0.000000 0.000002 1.471446 0.000000 -1.133455 -3.106073 0.625745 0.000000 0.917755 0.000004 135.978739 -0.000001 -0.629533 0.000001 0.940221 -0.000000 1.709736 4.625422 -0.000001 0.113772 1.960660 -88.303814 93.119425 0.000032 -0.669733 -0.113771 0.388340 -0.720499 3.566092 135.827082 
0.000000 0.000000 0.000000 -0.000000 1.019410 4.347599 -0.000000 0.000000 1.456275 -0.000000 -41.989763 -0.000000 -0.000000 0.000002 1.471445 -0.000000 -1.133460 -3.817946 0.625745 0.000000 0.917755 0.000004 136.200283 -0.000001 -0.629534 0.000001 0.940221 0.000000 1.709736 5.699540 -0.000001 0.113772 1.960661 -88.303841 93.848363 0.000027 -0.669733 -0.113771 0.388340 -0.724055 3.566035 136.027288 
0.000000 0.000000 0.000000 -0.000000 1.019410 5.232433 -0.000000 0.000000 1.456275 0.000000 -41.381770 0.000001 -0.000001 0.000002 1.471445 -0.000000 -1.133459 -4.586464 0.625745 0.000000 0.917755 0.000003 136.439449 -0.000001 -0.629533 0.000001 0.940221 -0.000000 1.709737 6.859127 -0.000001 0.113772 1.960660 -88.303841 94.635304 0.000026 -0.669733 -0.113771 0.388340 -0.727892 3.565960 136.243409 
0.000000 0.000000 0.000000 -0.000000 1.019410 6.149572 -0.000000 0.000000 1.456275 0.000000 -40.751569 -0.000000 -0.000000 0.000002 1.471445 -0.000000 -1.133460 -5.383042 0.625745 0.000000 0.917755 0.000004 136.687358 -0.000001 -0.629533 0.000001 0.940220 0.000000 1.709737 8.061050 -0.000001 0.113772 1.960661 -88.303848 95.450978 0.000027 -0.669733 -0.113771 0.388340 -0.731870 3.565865 136.467439 
0.000000 0.000000 0.000000 -0.000000 1.019410 7.066108 -0.000000 -0.000000 1.456275 0.000000 -40.121795 -0.000000 -0.000000 0.000002 1.471446 0.000001 -1.133461 -6.179094 0.625744 0.000000 0.917755 0.000004 136.935102 -0.000001 -0.629534 0.000001 0.940221 0.000000 1.709737 9.262183 -0.000001 0.113772 1.960661 -88.303848 96.266107 0.000013 -0.669733 -0.113771 0.388340 -0.735845 3.565756 136.691305 
0.000000 0.000000 0.000000 -0.000000 1.019410 7.957506 -0.000000 0.000000 1.456275 -0.000001 -39.509284 0.000000 -0.000000 0.000002 1.471445 -0.000000 -1.133459 -6.953314 0.625745 0.000000 0.917755 0.000003 137.176030 -0.000001 -0.629534 0.000001 0.940221 -0.000000 1.709737 10.430372 -0.000001 0.113772 1.960660 -88.303841 97.058887 0.000024 -0.669733 -0.113771 0.388340 -0.739711 3.565634 136.909052 
0.000000 0.000000 0.000000 -0.000000 1.019410 8.832752 -0.000000 0.000000 1.456275 -0.000000 -38.907869 -0.000001 -0.000000 0.000002 1.471446 0.000001 -1.133458 -7.713503 0.625745 0.000000 0.917755 0.000003 137.412628 -0.000001 -0.629534 0.000001 0.940221 -0.000000 1.709736 11.577394 -0.000000 0.113772 1.960660 -88.303868 97.837289 0.000015 -0.669733 -0.113771 0.388340 -0.743506 3.565500 137.122823 
0.000000 0.000000 0.000000 -0.000000 1.019410 9.709207 -0.000000 0.000000 1.456275 -0.000001 -38.305644 0.000001 -0.000001 0.000002 1.471446 0.000000 -1.133460 -8.474743 0.625745 0.000000 0.917754 0.000004 137.649526 -0.000001 -0.629534 0.000001 0.940221 -0.000000 1.709736 12.726002 -0.000001 0.113772 1.960661 -88.303862 98.616785 0.000014 -0.669733 -0.113771 0.388340 -0.747307 3.565353 137.336909 
